<?xml version="1.0" encoding="UTF-8" standalone="no"?>
<svg width="238.831mm" height="32.8083mm"
 xmlns="http://www.w3.org/2000/svg" xmlns:xlink="http://www.w3.org/1999/xlink"  version="1.2" baseProfile="tiny">
<title>Qt SVG Document</title>
<desc>Generated with Qt</desc>
<defs>
</defs>
<g fill="none" stroke="black" stroke-width="1" fill-rule="evenodd" stroke-linecap="square" stroke-linejoin="bevel" >

<g fill="none" stroke="#000000" stroke-opacity="1" stroke-width="1" stroke-linecap="square" stroke-linejoin="bevel" transform="matrix(1,0,0,1,0,0)"
font-family="Sans Serif" font-size="9" font-weight="400" font-style="normal" 
>
</g>

<g fill="none" stroke="#000000" stroke-opacity="1" stroke-width="1" stroke-linecap="square" stroke-linejoin="bevel" transform="matrix(1,0,0,1,0,0)"
font-family="Sans Serif" font-size="9" font-weight="400" font-style="normal" 
>
</g>

<g fill="none" stroke="#000000" stroke-opacity="1" stroke-width="1" stroke-linecap="square" stroke-linejoin="bevel" transform="matrix(2.00069,0,0,2.00069,-0.00240082,86.6757)"
font-family="Sans Serif" font-size="9" font-weight="400" font-style="normal" 
>
</g>

<g fill="#ffffff" fill-opacity="1" stroke="none" transform="matrix(2.00069,0,0,2.00069,-0.00240082,86.6757)"
font-family="Sans Serif" font-size="9" font-weight="400" font-style="normal" 
>
<rect x="0.0012" y="-43.323" width="338.384" height="46.3868"/>
</g>

<g fill="none" stroke="#000000" stroke-opacity="1" stroke-width="1" stroke-linecap="square" stroke-linejoin="bevel" transform="matrix(2.00069,0,0,2.00069,-0.00240082,86.6757)"
font-family="Sans Serif" font-size="9" font-weight="400" font-style="normal" 
>
</g>

<g fill="none" stroke="#000000" stroke-opacity="1" stroke-width="1" stroke-linecap="square" stroke-linejoin="bevel" transform="matrix(2.00069,0,0,2.00069,-0.00240082,86.6757)"
font-family="Sans Serif" font-size="9" font-weight="400" font-style="normal" 
>
</g>

<g fill="none" stroke="#000000" stroke-opacity="1" stroke-width="1" stroke-linecap="square" stroke-linejoin="bevel" transform="matrix(2.00069,0,0,2.00069,-0.00240082,86.6757)"
font-family="Sans Serif" font-size="9" font-weight="400" font-style="normal" 
>
</g>

<g fill="none" stroke="#000000" stroke-opacity="1" stroke-width="1" stroke-linecap="square" stroke-linejoin="bevel" transform="matrix(2.00069,0,0,2.00069,-0.00240082,86.6757)"
font-family="Sans Serif" font-size="9" font-weight="400" font-style="normal" 
>
</g>

<g fill="none" stroke="#000000" stroke-opacity="1" stroke-width="1" stroke-linecap="square" stroke-linejoin="round" transform="matrix(2.00069,0,0,2.00069,-0.00240082,86.6757)"
font-family="Sans Serif" font-size="9" font-weight="400" font-style="normal" 
>
<ellipse cx="46.146" cy="-25.323" rx="45.6448" ry="17.5"/>
</g>

<g fill="none" stroke="#000000" stroke-opacity="1" stroke-width="1" stroke-linecap="square" stroke-linejoin="bevel" transform="matrix(2.00069,0,0,2.00069,-0.00240082,86.6757)"
font-family="Sans Serif" font-size="9" font-weight="400" font-style="normal" 
>
</g>

<g fill="none" stroke="#000000" stroke-opacity="1" stroke-width="1" stroke-linecap="square" stroke-linejoin="bevel" transform="matrix(2.00069,0,0,2.00069,50.2131,22.0075)"
font-family="Sans Serif" font-size="9" font-weight="400" font-style="normal" 
>
</g>

<g fill="none" stroke="#000000" stroke-opacity="1" stroke-width="1" stroke-linecap="square" stroke-linejoin="bevel" transform="matrix(2.00069,0,0,2.00069,50.2131,22.0075)"
font-family="sans" font-size="11" font-weight="100" font-style="normal" 
>
</g>

<g fill="#000000" fill-opacity="1" stroke="#000000" stroke-opacity="1" stroke-width="1" stroke-linecap="square" stroke-linejoin="round" transform="matrix(2.00069,0,0,2.00069,50.2131,22.0075)"
font-family="sans" font-size="11" font-weight="100" font-style="normal" 
>
<path vector-effect="none" fill-rule="nonzero" d="M2.79688,2.98438 L3.70313,2.98438 L0.921875,12.0156 L0,12.0156 L2.79688,2.98438 M9.07813,5.21875 L9.07813,6.14063 C8.79688,5.98438 8.51563,5.86719 8.23438,5.78906 C7.95313,5.71094 7.66667,5.67188 7.375,5.67188 C6.73958,5.67188 6.24479,5.875 5.89063,6.28125 C5.53646,6.6875 5.35938,7.26042 5.35938,8 C5.35938,8.72917 5.53646,9.29688 5.89063,9.70313 C6.24479,10.1094 6.73958,10.3125 7.375,10.3125 C7.66667,10.3125 7.95313,10.276 8.23438,10.2031 C8.51563,10.1302 8.79688,10.0156 9.07813,9.85938 L9.07813,10.7656 C8.79688,10.901 8.50781,11 8.21094,11.0625 C7.91406,11.125 7.60417,11.1563 7.28125,11.1563 C6.375,11.1563 5.65365,10.8724 5.11719,10.3047 C4.58073,9.73698 4.3125,8.96875 4.3125,8 C4.3125,7.02083 4.58333,6.25 5.125,5.6875 C5.66667,5.125 6.40625,4.84375 7.34375,4.84375 C7.64583,4.84375 7.94271,4.875 8.23438,4.9375 C8.52604,5 8.80729,5.09375 9.07813,5.21875 M15.9375,7.75 L15.9375,8.23438 L11.3906,8.23438 C11.4323,8.91146 11.638,9.42708 12.0078,9.78125 C12.3776,10.1354 12.8906,10.3125 13.5469,10.3125 C13.9219,10.3125 14.2865,10.2656 14.6406,10.1719 C14.9948,10.0781 15.349,9.94271 15.7031,9.76563 L15.7031,10.6875 C15.349,10.8438 14.987,10.9609 14.6172,11.0391 C14.2474,11.1172 13.8698,11.1563 13.4844,11.1563 C12.526,11.1563 11.7656,10.8776 11.2031,10.3203 C10.6406,9.76302 10.3594,9.00521 10.3594,8.04688 C10.3594,7.06771 10.625,6.28906 11.1563,5.71094 C11.6875,5.13281 12.4063,4.84375 13.3125,4.84375 C14.125,4.84375 14.7656,5.10417 15.2344,5.625 C15.7031,6.14583 15.9375,6.85417 15.9375,7.75 M14.9531,7.45313 C14.9427,6.91146 14.7891,6.47917 14.4922,6.15625 C14.1953,5.83333 13.8073,5.67188 13.3281,5.67188 C12.776,5.67188 12.3333,5.82813 12,6.14063 C11.6667,6.45313 11.474,6.89063 11.4219,7.45313 L14.9531,7.45313 M22.5625,7.375 L22.5625,11 L21.5625,11 L21.5625,7.40625 C21.5625,6.83333 21.4531,6.40625 21.2344,6.125 C21.0156,5.84375 20.6823,5.70313 20.2344,5.70313 C19.7031,5.70313 19.2839,5.8724 18.9766,6.21094 C18.6693,6.54948 18.5156,7.01042 18.5156,7.59375 L18.5156,11 L17.5156,11 L17.5156,4.98438 L18.5156,4.98438 L18.5156,5.92188 C18.7448,5.55729 19.0208,5.28646 19.3438,5.10938 C19.6667,4.93229 20.0365,4.84375 20.4531,4.84375 C21.151,4.84375 21.6771,5.05729 22.0313,5.48438 C22.3854,5.91146 22.5625,6.54167 22.5625,7.375 M25.5,3.28125 L25.5,4.98438 L27.5313,4.98438 L27.5313,5.75 L25.5,5.75 L25.5,9.01563 C25.5,9.50521 25.5677,9.82031 25.7031,9.96094 C25.8385,10.1016 26.1094,10.1719 26.5156,10.1719 L27.5313,10.1719 L27.5313,11 L26.5156,11 C25.7552,11 25.2318,10.8568 24.9453,10.5703 C24.6589,10.2839 24.5156,9.76563 24.5156,9.01563 L24.5156,5.75 L23.7813,5.75 L23.7813,4.98438 L24.5156,4.98438 L24.5156,3.28125 L25.5,3.28125 M32.3281,5.90625 C32.2135,5.84375 32.0911,5.79688 31.9609,5.76563 C31.8307,5.73438 31.6875,5.71875 31.5313,5.71875 C30.9688,5.71875 30.5391,5.90104 30.2422,6.26563 C29.9453,6.63021 29.7969,7.15104 29.7969,7.82813 L29.7969,11 L28.7969,11 L28.7969,4.98438 L29.7969,4.98438 L29.7969,5.92188 C30.0052,5.55729 30.276,5.28646 30.6094,5.10938 C30.9427,4.93229 31.3438,4.84375 31.8125,4.84375 C31.8854,4.84375 31.9635,4.84635 32.0469,4.85156 C32.1302,4.85677 32.2188,4.86979 32.3125,4.89063 L32.3281,5.90625 M36.0938,7.96875 C35.2917,7.96875 34.737,8.0625 34.4297,8.25 C34.1224,8.4375 33.9688,8.75 33.9688,9.1875 C33.9688,9.53125 34.0833,9.80729 34.3125,10.0156 C34.5417,10.224 34.8542,10.3281 35.25,10.3281 C35.8021,10.3281 36.2422,10.1328 36.5703,9.74219 C36.8984,9.35156 37.0625,8.83854 37.0625,8.20313 L37.0625,7.96875 L36.0938,7.96875 M38.0625,7.5625 L38.0625,11 L37.0625,11 L37.0625,10.0938 C36.8438,10.4583 36.5651,10.7266 36.2266,10.8984 C35.888,11.0703 35.474,11.1563 34.9844,11.1563 C34.3698,11.1563 33.8828,10.9844 33.5234,10.6406 C33.1641,10.2969 32.9844,9.83333 32.9844,9.25 C32.9844,8.57292 33.2109,8.0625 33.6641,7.71875 C34.1172,7.375 34.7917,7.20313 35.6875,7.20313 L37.0625,7.20313 L37.0625,7.10938 C37.0625,6.65104 36.9141,6.29688 36.6172,6.04688 C36.3203,5.79688 35.901,5.67188 35.3594,5.67188 C35.0156,5.67188 34.6823,5.71354 34.3594,5.79688 C34.0365,5.88021 33.724,6.00521 33.4219,6.17188 L33.4219,5.26563 C33.776,5.11979 34.125,5.01302 34.4688,4.94531 C34.8125,4.8776 35.1458,4.84375 35.4688,4.84375 C36.3333,4.84375 36.9818,5.06771 37.4141,5.51563 C37.8464,5.96354 38.0625,6.64583 38.0625,7.5625 M40.0938,2.64063 L41.0781,2.64063 L41.0781,11 L40.0938,11 L40.0938,2.64063"/>
</g>

<g fill="none" stroke="#000000" stroke-opacity="1" stroke-width="1" stroke-linecap="square" stroke-linejoin="bevel" transform="matrix(2.00069,0,0,2.00069,50.2131,22.0075)"
font-family="sans" font-size="11" font-weight="100" font-style="normal" 
>
</g>

<g fill="none" stroke="#000000" stroke-opacity="1" stroke-width="1" stroke-linecap="square" stroke-linejoin="bevel" transform="matrix(2.00069,0,0,2.00069,50.2131,22.0075)"
font-family="Sans Serif" font-size="9" font-weight="400" font-style="normal" 
>
</g>

<g fill="none" stroke="#000000" stroke-opacity="1" stroke-width="1" stroke-linecap="square" stroke-linejoin="bevel" transform="matrix(2.00069,0,0,2.00069,-0.00240082,86.6757)"
font-family="Sans Serif" font-size="9" font-weight="400" font-style="normal" 
>
</g>

<g fill="none" stroke="#000000" stroke-opacity="1" stroke-width="1" stroke-linecap="square" stroke-linejoin="bevel" transform="matrix(2.00069,0,0,2.00069,-0.00240082,86.6757)"
font-family="Sans Serif" font-size="9" font-weight="400" font-style="normal" 
>
</g>

<g fill="none" stroke="#000000" stroke-opacity="1" stroke-width="1" stroke-linecap="square" stroke-linejoin="bevel" transform="matrix(2.00069,0,0,2.00069,-0.00240082,86.6757)"
font-family="Sans Serif" font-size="9" font-weight="400" font-style="normal" 
>
</g>

<g fill="none" stroke="#000000" stroke-opacity="1" stroke-width="1" stroke-linecap="square" stroke-linejoin="round" transform="matrix(2.00069,0,0,2.00069,-0.00240082,86.6757)"
font-family="Sans Serif" font-size="9" font-weight="400" font-style="normal" 
>
<ellipse cx="281.84" cy="-25.323" rx="56.0452" ry="17.5"/>
</g>

<g fill="none" stroke="#000000" stroke-opacity="1" stroke-width="1" stroke-linecap="square" stroke-linejoin="bevel" transform="matrix(2.00069,0,0,2.00069,-0.00240082,86.6757)"
font-family="Sans Serif" font-size="9" font-weight="400" font-style="normal" 
>
</g>

<g fill="none" stroke="#000000" stroke-opacity="1" stroke-width="1" stroke-linecap="square" stroke-linejoin="bevel" transform="matrix(2.00069,0,0,2.00069,510.759,22.0075)"
font-family="Sans Serif" font-size="9" font-weight="400" font-style="normal" 
>
</g>

<g fill="none" stroke="#000000" stroke-opacity="1" stroke-width="1" stroke-linecap="square" stroke-linejoin="bevel" transform="matrix(2.00069,0,0,2.00069,510.759,22.0075)"
font-family="sans" font-size="11" font-weight="100" font-style="normal" 
>
</g>

<g fill="#000000" fill-opacity="1" stroke="#000000" stroke-opacity="1" stroke-width="1" stroke-linecap="square" stroke-linejoin="round" transform="matrix(2.00069,0,0,2.00069,510.759,22.0075)"
font-family="sans" font-size="11" font-weight="100" font-style="normal" 
>
<path vector-effect="none" fill-rule="nonzero" d="M2.79688,2.98438 L3.70313,2.98438 L0.921875,12.0156 L0,12.0156 L2.79688,2.98438 M5.71875,3.28125 L5.71875,4.98438 L7.75,4.98438 L7.75,5.75 L5.71875,5.75 L5.71875,9.01563 C5.71875,9.50521 5.78646,9.82031 5.92188,9.96094 C6.05729,10.1016 6.32813,10.1719 6.73438,10.1719 L7.75,10.1719 L7.75,11 L6.73438,11 C5.97396,11 5.45052,10.8568 5.16406,10.5703 C4.8776,10.2839 4.73438,9.76563 4.73438,9.01563 L4.73438,5.75 L4,5.75 L4,4.98438 L4.73438,4.98438 L4.73438,3.28125 L5.71875,3.28125 M8.95313,8.625 L8.95313,4.98438 L9.9375,4.98438 L9.9375,8.59375 C9.9375,9.15625 10.0495,9.58073 10.2734,9.86719 C10.4974,10.1536 10.8333,10.2969 11.2813,10.2969 C11.8125,10.2969 12.2318,10.1276 12.5391,9.78906 C12.8464,9.45052 13,8.98438 13,8.39063 L13,4.98438 L14,4.98438 L14,11 L13,11 L13,10.0781 C12.7604,10.4427 12.4818,10.7135 12.1641,10.8906 C11.8464,11.0677 11.4792,11.1563 11.0625,11.1563 C10.375,11.1563 9.85156,10.9401 9.49219,10.5078 C9.13281,10.0755 8.95313,9.44792 8.95313,8.625 M19.5156,5.90625 C19.401,5.84375 19.2786,5.79688 19.1484,5.76563 C19.0182,5.73438 18.875,5.71875 18.7188,5.71875 C18.1563,5.71875 17.7266,5.90104 17.4297,6.26563 C17.1328,6.63021 16.9844,7.15104 16.9844,7.82813 L16.9844,11 L15.9844,11 L15.9844,4.98438 L16.9844,4.98438 L16.9844,5.92188 C17.1927,5.55729 17.4635,5.28646 17.7969,5.10938 C18.1302,4.93229 18.5313,4.84375 19,4.84375 C19.0729,4.84375 19.151,4.84635 19.2344,4.85156 C19.3177,4.85677 19.4063,4.86979 19.5,4.89063 L19.5156,5.90625 M21.5156,3.28125 L21.5156,4.98438 L23.5469,4.98438 L23.5469,5.75 L21.5156,5.75 L21.5156,9.01563 C21.5156,9.50521 21.5833,9.82031 21.7188,9.96094 C21.8542,10.1016 22.125,10.1719 22.5313,10.1719 L23.5469,10.1719 L23.5469,11 L22.5313,11 C21.7708,11 21.2474,10.8568 20.9609,10.5703 C20.6745,10.2839 20.5313,9.76563 20.5313,9.01563 L20.5313,5.75 L19.7969,5.75 L19.7969,4.98438 L20.5313,4.98438 L20.5313,3.28125 L21.5156,3.28125 M24.8594,2.64063 L25.8438,2.64063 L25.8438,11 L24.8594,11 L24.8594,2.64063 M33.0469,7.75 L33.0469,8.23438 L28.5,8.23438 C28.5417,8.91146 28.7474,9.42708 29.1172,9.78125 C29.487,10.1354 30,10.3125 30.6563,10.3125 C31.0313,10.3125 31.3958,10.2656 31.75,10.1719 C32.1042,10.0781 32.4583,9.94271 32.8125,9.76563 L32.8125,10.6875 C32.4583,10.8438 32.0964,10.9609 31.7266,11.0391 C31.3568,11.1172 30.9792,11.1563 30.5938,11.1563 C29.6354,11.1563 28.875,10.8776 28.3125,10.3203 C27.75,9.76302 27.4688,9.00521 27.4688,8.04688 C27.4688,7.06771 27.7344,6.28906 28.2656,5.71094 C28.7969,5.13281 29.5156,4.84375 30.4219,4.84375 C31.2344,4.84375 31.875,5.10417 32.3438,5.625 C32.8125,6.14583 33.0469,6.85417 33.0469,7.75 M32.0625,7.45313 C32.0521,6.91146 31.8984,6.47917 31.6016,6.15625 C31.3047,5.83333 30.9167,5.67188 30.4375,5.67188 C29.8854,5.67188 29.4427,5.82813 29.1094,6.14063 C28.776,6.45313 28.5833,6.89063 28.5313,7.45313 L32.0625,7.45313 M38.5,5.15625 L38.5,6.09375 C38.2188,5.94792 37.9271,5.84115 37.625,5.77344 C37.3229,5.70573 37.0156,5.67188 36.7031,5.67188 C36.2031,5.67188 35.8307,5.7474 35.5859,5.89844 C35.3411,6.04948 35.2188,6.27083 35.2188,6.5625 C35.2188,6.79167 35.3073,6.97135 35.4844,7.10156 C35.6615,7.23177 36.0156,7.35938 36.5469,7.48438 L36.8906,7.5625 C37.5885,7.70833 38.0859,7.91927 38.3828,8.19531 C38.6797,8.47135 38.8281,8.85417 38.8281,9.34375 C38.8281,9.89583 38.6068,10.3359 38.1641,10.6641 C37.7214,10.9922 37.1146,11.1563 36.3438,11.1563 C36.0208,11.1563 35.6849,11.125 35.3359,11.0625 C34.987,11 34.6146,10.9063 34.2188,10.7813 L34.2188,9.76563 C34.5833,9.95313 34.9453,10.0938 35.3047,10.1875 C35.6641,10.2813 36.0156,10.3281 36.3594,10.3281 C36.8281,10.3281 37.1875,10.2474 37.4375,10.0859 C37.6875,9.92448 37.8125,9.70313 37.8125,9.42188 C37.8125,9.15104 37.7214,8.94271 37.5391,8.79688 C37.3568,8.65104 36.9583,8.51563 36.3438,8.39063 L36,8.29688 C35.3854,8.17188 34.9427,7.97656 34.6719,7.71094 C34.401,7.44531 34.2656,7.07813 34.2656,6.60938 C34.2656,6.04688 34.4661,5.61198 34.8672,5.30469 C35.2682,4.9974 35.8385,4.84375 36.5781,4.84375 C36.9427,4.84375 37.2865,4.86979 37.6094,4.92188 C37.9323,4.97396 38.2292,5.05208 38.5,5.15625 M40.3906,4.98438 L41.375,4.98438 L41.375,11 L40.3906,11 L40.3906,4.98438 M40.3906,2.64063 L41.375,2.64063 L41.375,3.89063 L40.3906,3.89063 L40.3906,2.64063 M48.1094,6.14063 C48.3594,5.69271 48.6563,5.36458 49,5.15625 C49.3438,4.94792 49.75,4.84375 50.2188,4.84375 C50.8438,4.84375 51.3255,5.0625 51.6641,5.5 C52.0026,5.9375 52.1719,6.5625 52.1719,7.375 L52.1719,11 L51.1875,11 L51.1875,7.40625 C51.1875,6.82292 51.0833,6.39323 50.875,6.11719 C50.6667,5.84115 50.3542,5.70313 49.9375,5.70313 C49.4271,5.70313 49.0234,5.8724 48.7266,6.21094 C48.4297,6.54948 48.2813,7.01042 48.2813,7.59375 L48.2813,11 L47.2813,11 L47.2813,7.40625 C47.2813,6.82292 47.1797,6.39323 46.9766,6.11719 C46.7734,5.84115 46.4583,5.70313 46.0313,5.70313 C45.5313,5.70313 45.1328,5.8724 44.8359,6.21094 C44.5391,6.54948 44.3906,7.01042 44.3906,7.59375 L44.3906,11 L43.3906,11 L43.3906,4.98438 L44.3906,4.98438 L44.3906,5.92188 C44.6094,5.54688 44.8776,5.27344 45.1953,5.10156 C45.513,4.92969 45.8906,4.84375 46.3281,4.84375 C46.7552,4.84375 47.1224,4.95313 47.4297,5.17188 C47.737,5.39063 47.9635,5.71354 48.1094,6.14063 "/>
</g>

<g fill="none" stroke="#000000" stroke-opacity="1" stroke-width="1" stroke-linecap="square" stroke-linejoin="bevel" transform="matrix(2.00069,0,0,2.00069,510.759,22.0075)"
font-family="sans" font-size="11" font-weight="100" font-style="normal" 
>
</g>

<g fill="none" stroke="#000000" stroke-opacity="1" stroke-width="1" stroke-linecap="square" stroke-linejoin="bevel" transform="matrix(2.00069,0,0,2.00069,510.759,22.0075)"
font-family="Sans Serif" font-size="9" font-weight="400" font-style="normal" 
>
</g>

<g fill="none" stroke="#000000" stroke-opacity="1" stroke-width="1" stroke-linecap="square" stroke-linejoin="bevel" transform="matrix(2.00069,0,0,2.00069,-0.00240082,86.6757)"
font-family="Sans Serif" font-size="9" font-weight="400" font-style="normal" 
>
</g>

<g fill="none" stroke="#000000" stroke-opacity="1" stroke-width="1" stroke-linecap="square" stroke-linejoin="bevel" transform="matrix(2.00069,0,0,2.00069,-0.00240082,86.6757)"
font-family="Sans Serif" font-size="9" font-weight="400" font-style="normal" 
>
</g>

<g fill="none" stroke="#000000" stroke-opacity="1" stroke-width="1" stroke-linecap="square" stroke-linejoin="bevel" transform="matrix(2.00069,0,0,2.00069,-0.00240082,86.6757)"
font-family="Sans Serif" font-size="9" font-weight="400" font-style="normal" 
>
</g>

<g fill="none" stroke="#000000" stroke-opacity="1" stroke-width="1" stroke-linecap="square" stroke-linejoin="round" transform="matrix(2.00069,0,0,2.00069,-0.00240082,86.6757)"
font-family="Sans Serif" font-size="9" font-weight="400" font-style="normal" 
>
<path vector-effect="none" fill-rule="evenodd" d="M92.481,-25.323 C127.21,-25.323 175.62,-25.323 214.67,-25.323 "/>
</g>

<g fill="none" stroke="#000000" stroke-opacity="1" stroke-width="1" stroke-linecap="square" stroke-linejoin="bevel" transform="matrix(2.00069,0,0,2.00069,-0.00240082,86.6757)"
font-family="Sans Serif" font-size="9" font-weight="400" font-style="normal" 
>
</g>

<g fill="none" stroke="#000000" stroke-opacity="1" stroke-width="1" stroke-linecap="square" stroke-linejoin="bevel" transform="matrix(2.00069,0,0,2.00069,227.812,7.0024)"
font-family="Sans Serif" font-size="9" font-weight="400" font-style="normal" 
>
</g>

<g fill="none" stroke="#000000" stroke-opacity="1" stroke-width="1" stroke-linecap="square" stroke-linejoin="bevel" transform="matrix(2.00069,0,0,2.00069,227.812,7.0024)"
font-family="sans" font-size="11" font-weight="100" font-style="normal" 
>
</g>

<g fill="#000000" fill-opacity="1" stroke="#000000" stroke-opacity="1" stroke-width="1" stroke-linecap="square" stroke-linejoin="round" transform="matrix(2.00069,0,0,2.00069,227.812,7.0024)"
font-family="sans" font-size="11" font-weight="100" font-style="normal" 
>
<path vector-effect="none" fill-rule="nonzero" d="M2.79688,2.98438 L3.70313,2.98438 L0.921875,12.0156 L0,12.0156 L2.79688,2.98438 M5.71875,3.28125 L5.71875,4.98438 L7.75,4.98438 L7.75,5.75 L5.71875,5.75 L5.71875,9.01563 C5.71875,9.50521 5.78646,9.82031 5.92188,9.96094 C6.05729,10.1016 6.32813,10.1719 6.73438,10.1719 L7.75,10.1719 L7.75,11 L6.73438,11 C5.97396,11 5.45052,10.8568 5.16406,10.5703 C4.8776,10.2839 4.73438,9.76563 4.73438,9.01563 L4.73438,5.75 L4,5.75 L4,4.98438 L4.73438,4.98438 L4.73438,3.28125 L5.71875,3.28125 M8.95313,8.625 L8.95313,4.98438 L9.9375,4.98438 L9.9375,8.59375 C9.9375,9.15625 10.0495,9.58073 10.2734,9.86719 C10.4974,10.1536 10.8333,10.2969 11.2813,10.2969 C11.8125,10.2969 12.2318,10.1276 12.5391,9.78906 C12.8464,9.45052 13,8.98438 13,8.39063 L13,4.98438 L14,4.98438 L14,11 L13,11 L13,10.0781 C12.7604,10.4427 12.4818,10.7135 12.1641,10.8906 C11.8464,11.0677 11.4792,11.1563 11.0625,11.1563 C10.375,11.1563 9.85156,10.9401 9.49219,10.5078 C9.13281,10.0755 8.95313,9.44792 8.95313,8.625 M19.5156,5.90625 C19.401,5.84375 19.2786,5.79688 19.1484,5.76563 C19.0182,5.73438 18.875,5.71875 18.7188,5.71875 C18.1563,5.71875 17.7266,5.90104 17.4297,6.26563 C17.1328,6.63021 16.9844,7.15104 16.9844,7.82813 L16.9844,11 L15.9844,11 L15.9844,4.98438 L16.9844,4.98438 L16.9844,5.92188 C17.1927,5.55729 17.4635,5.28646 17.7969,5.10938 C18.1302,4.93229 18.5313,4.84375 19,4.84375 C19.0729,4.84375 19.151,4.84635 19.2344,4.85156 C19.3177,4.85677 19.4063,4.86979 19.5,4.89063 L19.5156,5.90625 M21.5156,3.28125 L21.5156,4.98438 L23.5469,4.98438 L23.5469,5.75 L21.5156,5.75 L21.5156,9.01563 C21.5156,9.50521 21.5833,9.82031 21.7188,9.96094 C21.8542,10.1016 22.125,10.1719 22.5313,10.1719 L23.5469,10.1719 L23.5469,11 L22.5313,11 C21.7708,11 21.2474,10.8568 20.9609,10.5703 C20.6745,10.2839 20.5313,9.76563 20.5313,9.01563 L20.5313,5.75 L19.7969,5.75 L19.7969,4.98438 L20.5313,4.98438 L20.5313,3.28125 L21.5156,3.28125 M24.8594,2.64063 L25.8438,2.64063 L25.8438,11 L24.8594,11 L24.8594,2.64063 M33.0469,7.75 L33.0469,8.23438 L28.5,8.23438 C28.5417,8.91146 28.7474,9.42708 29.1172,9.78125 C29.487,10.1354 30,10.3125 30.6563,10.3125 C31.0313,10.3125 31.3958,10.2656 31.75,10.1719 C32.1042,10.0781 32.4583,9.94271 32.8125,9.76563 L32.8125,10.6875 C32.4583,10.8438 32.0964,10.9609 31.7266,11.0391 C31.3568,11.1172 30.9792,11.1563 30.5938,11.1563 C29.6354,11.1563 28.875,10.8776 28.3125,10.3203 C27.75,9.76302 27.4688,9.00521 27.4688,8.04688 C27.4688,7.06771 27.7344,6.28906 28.2656,5.71094 C28.7969,5.13281 29.5156,4.84375 30.4219,4.84375 C31.2344,4.84375 31.875,5.10417 32.3438,5.625 C32.8125,6.14583 33.0469,6.85417 33.0469,7.75 M32.0625,7.45313 C32.0521,6.91146 31.8984,6.47917 31.6016,6.15625 C31.3047,5.83333 30.9167,5.67188 30.4375,5.67188 C29.8854,5.67188 29.4427,5.82813 29.1094,6.14063 C28.776,6.45313 28.5833,6.89063 28.5313,7.45313 L32.0625,7.45313 M35,10.0938 L36.7656,10.0938 L36.7656,3.96875 L34.8438,4.35938 L34.8438,3.375 L36.75,2.98438 L37.8438,2.98438 L37.8438,10.0938 L39.6094,10.0938 L39.6094,11 L35,11 L35,10.0938 M43.4063,2.98438 L44.3125,2.98438 L41.5313,12.0156 L40.6094,12.0156 L43.4063,2.98438 M49.6875,5.21875 L49.6875,6.14063 C49.4063,5.98438 49.125,5.86719 48.8438,5.78906 C48.5625,5.71094 48.276,5.67188 47.9844,5.67188 C47.349,5.67188 46.8542,5.875 46.5,6.28125 C46.1458,6.6875 45.9688,7.26042 45.9688,8 C45.9688,8.72917 46.1458,9.29688 46.5,9.70313 C46.8542,10.1094 47.349,10.3125 47.9844,10.3125 C48.276,10.3125 48.5625,10.276 48.8438,10.2031 C49.125,10.1302 49.4063,10.0156 49.6875,9.85938 L49.6875,10.7656 C49.4063,10.901 49.1172,11 48.8203,11.0625 C48.5234,11.125 48.2135,11.1563 47.8906,11.1563 C46.9844,11.1563 46.263,10.8724 45.7266,10.3047 C45.1901,9.73698 44.9219,8.96875 44.9219,8 C44.9219,7.02083 45.1927,6.25 45.7344,5.6875 C46.276,5.125 47.0156,4.84375 47.9531,4.84375 C48.2552,4.84375 48.5521,4.875 48.8438,4.9375 C49.1354,5 49.4167,5.09375 49.6875,5.21875 M56.0781,6.14063 C56.3281,5.69271 56.625,5.36458 56.9688,5.15625 C57.3125,4.94792 57.7188,4.84375 58.1875,4.84375 C58.8125,4.84375 59.2943,5.0625 59.6328,5.5 C59.9714,5.9375 60.1406,6.5625 60.1406,7.375 L60.1406,11 L59.1563,11 L59.1563,7.40625 C59.1563,6.82292 59.0521,6.39323 58.8438,6.11719 C58.6354,5.84115 58.3229,5.70313 57.9063,5.70313 C57.3958,5.70313 56.9922,5.8724 56.6953,6.21094 C56.3984,6.54948 56.25,7.01042 56.25,7.59375 L56.25,11 L55.25,11 L55.25,7.40625 C55.25,6.82292 55.1484,6.39323 54.9453,6.11719 C54.7422,5.84115 54.4271,5.70313 54,5.70313 C53.5,5.70313 53.1016,5.8724 52.8047,6.21094 C52.5078,6.54948 52.3594,7.01042 52.3594,7.59375 L52.3594,11 L51.3594,11 L51.3594,4.98438 L52.3594,4.98438 L52.3594,5.92188 C52.5781,5.54688 52.8464,5.27344 53.1641,5.10156 C53.4818,4.92969 53.8594,4.84375 54.2969,4.84375 C54.724,4.84375 55.0911,4.95313 55.3984,5.17188 C55.7057,5.39063 55.9323,5.71354 56.0781,6.14063 M66.0625,5.89063 L66.0625,2.64063 L67.0469,2.64063 L67.0469,11 L66.0625,11 L66.0625,10.0938 C65.8542,10.4583 65.5911,10.7266 65.2734,10.8984 C64.9557,11.0703 64.5781,11.1563 64.1406,11.1563 C63.4115,11.1563 62.8177,10.8672 62.3594,10.2891 C61.901,9.71094 61.6719,8.94792 61.6719,8 C61.6719,7.05208 61.901,6.28906 62.3594,5.71094 C62.8177,5.13281 63.4115,4.84375 64.1406,4.84375 C64.5781,4.84375 64.9557,4.92969 65.2734,5.10156 C65.5911,5.27344 65.8542,5.53646 66.0625,5.89063 M62.6875,8 C62.6875,8.72917 62.8385,9.29948 63.1406,9.71094 C63.4427,10.1224 63.8542,10.3281 64.375,10.3281 C64.8958,10.3281 65.3073,10.1224 65.6094,9.71094 C65.9115,9.29948 66.0625,8.72917 66.0625,8 C66.0625,7.27083 65.9115,6.70052 65.6094,6.28906 C65.3073,5.8776 64.8958,5.67188 64.375,5.67188 C63.8542,5.67188 63.4427,5.8776 63.1406,6.28906 C62.8385,6.70052 62.6875,7.27083 62.6875,8 M73.6406,12.8281 L73.6406,13.5938 L67.9219,13.5938 L67.9219,12.8281 L73.6406,12.8281 M73.8594,4.98438 L74.9063,4.98438 L76.7969,10.0313 L78.6719,4.98438 L79.7188,4.98438 L77.4688,11 L76.125,11 L73.8594,4.98438 M86.2188,7.75 L86.2188,8.23438 L81.6719,8.23438 C81.7135,8.91146 81.9193,9.42708 82.2891,9.78125 C82.6589,10.1354 83.1719,10.3125 83.8281,10.3125 C84.2031,10.3125 84.5677,10.2656 84.9219,10.1719 C85.276,10.0781 85.6302,9.94271 85.9844,9.76563 L85.9844,10.6875 C85.6302,10.8438 85.2682,10.9609 84.8984,11.0391 C84.5286,11.1172 84.151,11.1563 83.7656,11.1563 C82.8073,11.1563 82.0469,10.8776 81.4844,10.3203 C80.9219,9.76302 80.6406,9.00521 80.6406,8.04688 C80.6406,7.06771 80.9063,6.28906 81.4375,5.71094 C81.9688,5.13281 82.6875,4.84375 83.5938,4.84375 C84.4063,4.84375 85.0469,5.10417 85.5156,5.625 C85.9844,6.14583 86.2188,6.85417 86.2188,7.75 M85.2344,7.45313 C85.224,6.91146 85.0703,6.47917 84.7734,6.15625 C84.4766,5.83333 84.0885,5.67188 83.6094,5.67188 C83.0573,5.67188 82.6146,5.82813 82.2813,6.14063 C81.9479,6.45313 81.7552,6.89063 81.7031,7.45313 L85.2344,7.45313 M87.8438,2.64063 L88.8281,2.64063 L88.8281,11 L87.8438,11 L87.8438,2.64063"/>
</g>

<g fill="none" stroke="#000000" stroke-opacity="1" stroke-width="1" stroke-linecap="square" stroke-linejoin="bevel" transform="matrix(2.00069,0,0,2.00069,227.812,7.0024)"
font-family="sans" font-size="11" font-weight="100" font-style="normal" 
>
</g>

<g fill="none" stroke="#000000" stroke-opacity="1" stroke-width="1" stroke-linecap="square" stroke-linejoin="bevel" transform="matrix(2.00069,0,0,2.00069,227.812,7.0024)"
font-family="Sans Serif" font-size="9" font-weight="400" font-style="normal" 
>
</g>

<g fill="none" stroke="#000000" stroke-opacity="1" stroke-width="1" stroke-linecap="square" stroke-linejoin="bevel" transform="matrix(2.00069,0,0,2.00069,-0.00240082,86.6757)"
font-family="Sans Serif" font-size="9" font-weight="400" font-style="normal" 
>
</g>

<g fill="#000000" fill-opacity="1" stroke="#000000" stroke-opacity="1" stroke-width="1" stroke-linecap="square" stroke-linejoin="round" transform="matrix(2.00069,0,0,2.00069,-0.00240082,86.6757)"
font-family="Sans Serif" font-size="9" font-weight="400" font-style="normal" 
>
<path vector-effect="none" fill-rule="evenodd" d="M214.67,-25.323 L214.67,-21.7425 L224.9,-25.323 L214.67,-28.9035 L214.67,-25.323"/>
</g>

<g fill="none" stroke="#000000" stroke-opacity="1" stroke-width="1" stroke-linecap="square" stroke-linejoin="bevel" transform="matrix(2.00069,0,0,2.00069,-0.00240082,86.6757)"
font-family="Sans Serif" font-size="9" font-weight="400" font-style="normal" 
>
</g>

<g fill="none" stroke="#000000" stroke-opacity="1" stroke-width="1" stroke-linecap="square" stroke-linejoin="bevel" transform="matrix(2.00069,0,0,2.00069,-0.00240082,86.6757)"
font-family="Sans Serif" font-size="9" font-weight="400" font-style="normal" 
>
</g>

<g fill="none" stroke="#000000" stroke-opacity="1" stroke-width="1" stroke-linecap="square" stroke-linejoin="bevel" transform="matrix(2.00069,0,0,2.00069,-0.00240082,86.6757)"
font-family="Sans Serif" font-size="9" font-weight="400" font-style="normal" 
>
</g>

<g fill="none" stroke="#000000" stroke-opacity="1" stroke-width="1" stroke-linecap="square" stroke-linejoin="bevel" transform="matrix(2.00069,0,0,2.00069,-0.00240082,86.6757)"
font-family="Sans Serif" font-size="9" font-weight="400" font-style="normal" 
>
</g>

<g fill="none" stroke="#000000" stroke-opacity="1" stroke-width="1" stroke-linecap="square" stroke-linejoin="round" transform="matrix(2.00069,0,0,2.00069,-0.00240082,86.6757)"
font-family="Sans Serif" font-size="9" font-weight="400" font-style="normal" 
>
<path vector-effect="none" fill-rule="evenodd" d="M243.27,-12.135 C234.83,-9.7221 225.84,-7.5736 217.29,-6.3235 C165.84,1.204 151.53,2.5597 100.29,-6.3235 C96.164,-7.0391 91.934,-8.0455 87.749,-9.2257 "/>
</g>

<g fill="none" stroke="#000000" stroke-opacity="1" stroke-width="1" stroke-linecap="square" stroke-linejoin="bevel" transform="matrix(2.00069,0,0,2.00069,-0.00240082,86.6757)"
font-family="Sans Serif" font-size="9" font-weight="400" font-style="normal" 
>
</g>

<g fill="none" stroke="#000000" stroke-opacity="1" stroke-width="1" stroke-linecap="square" stroke-linejoin="bevel" transform="matrix(2.00069,0,0,2.00069,247.178,45.0154)"
font-family="Sans Serif" font-size="9" font-weight="400" font-style="normal" 
>
</g>

<g fill="none" stroke="#000000" stroke-opacity="1" stroke-width="1" stroke-linecap="square" stroke-linejoin="bevel" transform="matrix(2.00069,0,0,2.00069,247.178,45.0154)"
font-family="sans" font-size="11" font-weight="100" font-style="normal" 
>
</g>

<g fill="#000000" fill-opacity="1" stroke="#000000" stroke-opacity="1" stroke-width="1" stroke-linecap="square" stroke-linejoin="round" transform="matrix(2.00069,0,0,2.00069,247.178,45.0154)"
font-family="sans" font-size="11" font-weight="100" font-style="normal" 
>
<path vector-effect="none" fill-rule="nonzero" d="M2.79688,2.98438 L3.70313,2.98438 L0.921875,12.0156 L0,12.0156 L2.79688,2.98438 M5.71875,3.28125 L5.71875,4.98438 L7.75,4.98438 L7.75,5.75 L5.71875,5.75 L5.71875,9.01563 C5.71875,9.50521 5.78646,9.82031 5.92188,9.96094 C6.05729,10.1016 6.32813,10.1719 6.73438,10.1719 L7.75,10.1719 L7.75,11 L6.73438,11 C5.97396,11 5.45052,10.8568 5.16406,10.5703 C4.8776,10.2839 4.73438,9.76563 4.73438,9.01563 L4.73438,5.75 L4,5.75 L4,4.98438 L4.73438,4.98438 L4.73438,3.28125 L5.71875,3.28125 M8.95313,8.625 L8.95313,4.98438 L9.9375,4.98438 L9.9375,8.59375 C9.9375,9.15625 10.0495,9.58073 10.2734,9.86719 C10.4974,10.1536 10.8333,10.2969 11.2813,10.2969 C11.8125,10.2969 12.2318,10.1276 12.5391,9.78906 C12.8464,9.45052 13,8.98438 13,8.39063 L13,4.98438 L14,4.98438 L14,11 L13,11 L13,10.0781 C12.7604,10.4427 12.4818,10.7135 12.1641,10.8906 C11.8464,11.0677 11.4792,11.1563 11.0625,11.1563 C10.375,11.1563 9.85156,10.9401 9.49219,10.5078 C9.13281,10.0755 8.95313,9.44792 8.95313,8.625 M19.5156,5.90625 C19.401,5.84375 19.2786,5.79688 19.1484,5.76563 C19.0182,5.73438 18.875,5.71875 18.7188,5.71875 C18.1563,5.71875 17.7266,5.90104 17.4297,6.26563 C17.1328,6.63021 16.9844,7.15104 16.9844,7.82813 L16.9844,11 L15.9844,11 L15.9844,4.98438 L16.9844,4.98438 L16.9844,5.92188 C17.1927,5.55729 17.4635,5.28646 17.7969,5.10938 C18.1302,4.93229 18.5313,4.84375 19,4.84375 C19.0729,4.84375 19.151,4.84635 19.2344,4.85156 C19.3177,4.85677 19.4063,4.86979 19.5,4.89063 L19.5156,5.90625 M21.5156,3.28125 L21.5156,4.98438 L23.5469,4.98438 L23.5469,5.75 L21.5156,5.75 L21.5156,9.01563 C21.5156,9.50521 21.5833,9.82031 21.7188,9.96094 C21.8542,10.1016 22.125,10.1719 22.5313,10.1719 L23.5469,10.1719 L23.5469,11 L22.5313,11 C21.7708,11 21.2474,10.8568 20.9609,10.5703 C20.6745,10.2839 20.5313,9.76563 20.5313,9.01563 L20.5313,5.75 L19.7969,5.75 L19.7969,4.98438 L20.5313,4.98438 L20.5313,3.28125 L21.5156,3.28125 M24.8594,2.64063 L25.8438,2.64063 L25.8438,11 L24.8594,11 L24.8594,2.64063 M33.0469,7.75 L33.0469,8.23438 L28.5,8.23438 C28.5417,8.91146 28.7474,9.42708 29.1172,9.78125 C29.487,10.1354 30,10.3125 30.6563,10.3125 C31.0313,10.3125 31.3958,10.2656 31.75,10.1719 C32.1042,10.0781 32.4583,9.94271 32.8125,9.76563 L32.8125,10.6875 C32.4583,10.8438 32.0964,10.9609 31.7266,11.0391 C31.3568,11.1172 30.9792,11.1563 30.5938,11.1563 C29.6354,11.1563 28.875,10.8776 28.3125,10.3203 C27.75,9.76302 27.4688,9.00521 27.4688,8.04688 C27.4688,7.06771 27.7344,6.28906 28.2656,5.71094 C28.7969,5.13281 29.5156,4.84375 30.4219,4.84375 C31.2344,4.84375 31.875,5.10417 32.3438,5.625 C32.8125,6.14583 33.0469,6.85417 33.0469,7.75 M32.0625,7.45313 C32.0521,6.91146 31.8984,6.47917 31.6016,6.15625 C31.3047,5.83333 30.9167,5.67188 30.4375,5.67188 C29.8854,5.67188 29.4427,5.82813 29.1094,6.14063 C28.776,6.45313 28.5833,6.89063 28.5313,7.45313 L32.0625,7.45313 M35,10.0938 L36.7656,10.0938 L36.7656,3.96875 L34.8438,4.35938 L34.8438,3.375 L36.75,2.98438 L37.8438,2.98438 L37.8438,10.0938 L39.6094,10.0938 L39.6094,11 L35,11 L35,10.0938 M43.4063,2.98438 L44.3125,2.98438 L41.5313,12.0156 L40.6094,12.0156 L43.4063,2.98438 M46.3125,10.0938 L46.3125,13.2813 L45.3125,13.2813 L45.3125,4.98438 L46.3125,4.98438 L46.3125,5.89063 C46.5208,5.53646 46.7839,5.27344 47.1016,5.10156 C47.4193,4.92969 47.7969,4.84375 48.2344,4.84375 C48.9635,4.84375 49.5573,5.13281 50.0156,5.71094 C50.474,6.28906 50.7031,7.05208 50.7031,8 C50.7031,8.94792 50.474,9.71094 50.0156,10.2891 C49.5573,10.8672 48.9635,11.1563 48.2344,11.1563 C47.7969,11.1563 47.4193,11.0703 47.1016,10.8984 C46.7839,10.7266 46.5208,10.4583 46.3125,10.0938 M49.6719,8 C49.6719,7.27083 49.5234,6.70052 49.2266,6.28906 C48.9297,5.8776 48.5156,5.67188 47.9844,5.67188 C47.4635,5.67188 47.0547,5.8776 46.7578,6.28906 C46.4609,6.70052 46.3125,7.27083 46.3125,8 C46.3125,8.72917 46.4609,9.29948 46.7578,9.71094 C47.0547,10.1224 47.4635,10.3281 47.9844,10.3281 C48.5156,10.3281 48.9297,10.1224 49.2266,9.71094 C49.5234,9.29948 49.6719,8.72917 49.6719,8 M54.6563,5.67188 C54.125,5.67188 53.7057,5.88021 53.3984,6.29688 C53.0911,6.71354 52.9375,7.28125 52.9375,8 C52.9375,8.71875 53.0911,9.28385 53.3984,9.69531 C53.7057,10.1068 54.125,10.3125 54.6563,10.3125 C55.1771,10.3125 55.5911,10.1068 55.8984,9.69531 C56.2057,9.28385 56.3594,8.71875 56.3594,8 C56.3594,7.28125 56.2057,6.71354 55.8984,6.29688 C55.5911,5.88021 55.1771,5.67188 54.6563,5.67188 M54.6563,4.84375 C55.5104,4.84375 56.1823,5.1224 56.6719,5.67969 C57.1615,6.23698 57.4063,7.01042 57.4063,8 C57.4063,8.97917 57.1615,9.75 56.6719,10.3125 C56.1823,10.875 55.5104,11.1563 54.6563,11.1563 C53.7917,11.1563 53.1146,10.875 52.625,10.3125 C52.1354,9.75 51.8906,8.97917 51.8906,8 C51.8906,7.01042 52.1354,6.23698 52.625,5.67969 C53.1146,5.1224 53.7917,4.84375 54.6563,4.84375 M62.875,5.15625 L62.875,6.09375 C62.5938,5.94792 62.3021,5.84115 62,5.77344 C61.6979,5.70573 61.3906,5.67188 61.0781,5.67188 C60.5781,5.67188 60.2057,5.7474 59.9609,5.89844 C59.7161,6.04948 59.5938,6.27083 59.5938,6.5625 C59.5938,6.79167 59.6823,6.97135 59.8594,7.10156 C60.0365,7.23177 60.3906,7.35938 60.9219,7.48438 L61.2656,7.5625 C61.9635,7.70833 62.4609,7.91927 62.7578,8.19531 C63.0547,8.47135 63.2031,8.85417 63.2031,9.34375 C63.2031,9.89583 62.9818,10.3359 62.5391,10.6641 C62.0964,10.9922 61.4896,11.1563 60.7188,11.1563 C60.3958,11.1563 60.0599,11.125 59.7109,11.0625 C59.362,11 58.9896,10.9063 58.5938,10.7813 L58.5938,9.76563 C58.9583,9.95313 59.3203,10.0938 59.6797,10.1875 C60.0391,10.2813 60.3906,10.3281 60.7344,10.3281 C61.2031,10.3281 61.5625,10.2474 61.8125,10.0859 C62.0625,9.92448 62.1875,9.70313 62.1875,9.42188 C62.1875,9.15104 62.0964,8.94271 61.9141,8.79688 C61.7318,8.65104 61.3333,8.51563 60.7188,8.39063 L60.375,8.29688 C59.7604,8.17188 59.3177,7.97656 59.0469,7.71094 C58.776,7.44531 58.6406,7.07813 58.6406,6.60938 C58.6406,6.04688 58.8411,5.61198 59.2422,5.30469 C59.6432,4.9974 60.2135,4.84375 60.9531,4.84375 C61.3177,4.84375 61.6615,4.86979 61.9844,4.92188 C62.3073,4.97396 62.6042,5.05208 62.875,5.15625 M69.9063,7.75 L69.9063,8.23438 L65.3594,8.23438 C65.401,8.91146 65.6068,9.42708 65.9766,9.78125 C66.3464,10.1354 66.8594,10.3125 67.5156,10.3125 C67.8906,10.3125 68.2552,10.2656 68.6094,10.1719 C68.9635,10.0781 69.3177,9.94271 69.6719,9.76563 L69.6719,10.6875 C69.3177,10.8438 68.9557,10.9609 68.5859,11.0391 C68.2161,11.1172 67.8385,11.1563 67.4531,11.1563 C66.4948,11.1563 65.7344,10.8776 65.1719,10.3203 C64.6094,9.76302 64.3281,9.00521 64.3281,8.04688 C64.3281,7.06771 64.5938,6.28906 65.125,5.71094 C65.6563,5.13281 66.375,4.84375 67.2813,4.84375 C68.0938,4.84375 68.7344,5.10417 69.2031,5.625 C69.6719,6.14583 69.9063,6.85417 69.9063,7.75 M68.9219,7.45313 C68.9115,6.91146 68.7578,6.47917 68.4609,6.15625 C68.1641,5.83333 67.776,5.67188 67.2969,5.67188 C66.7448,5.67188 66.3021,5.82813 65.9688,6.14063 C65.6354,6.45313 65.4427,6.89063 65.3906,7.45313 L68.9219,7.45313"/>
</g>

<g fill="none" stroke="#000000" stroke-opacity="1" stroke-width="1" stroke-linecap="square" stroke-linejoin="bevel" transform="matrix(2.00069,0,0,2.00069,247.178,45.0154)"
font-family="sans" font-size="11" font-weight="100" font-style="normal" 
>
</g>

<g fill="none" stroke="#000000" stroke-opacity="1" stroke-width="1" stroke-linecap="square" stroke-linejoin="bevel" transform="matrix(2.00069,0,0,2.00069,247.178,45.0154)"
font-family="Sans Serif" font-size="9" font-weight="400" font-style="normal" 
>
</g>

<g fill="none" stroke="#000000" stroke-opacity="1" stroke-width="1" stroke-linecap="square" stroke-linejoin="bevel" transform="matrix(2.00069,0,0,2.00069,-0.00240082,86.6757)"
font-family="Sans Serif" font-size="9" font-weight="400" font-style="normal" 
>
</g>

<g fill="#000000" fill-opacity="1" stroke="#000000" stroke-opacity="1" stroke-width="1" stroke-linecap="square" stroke-linejoin="round" transform="matrix(2.00069,0,0,2.00069,-0.00240082,86.6757)"
font-family="Sans Serif" font-size="9" font-weight="400" font-style="normal" 
>
<path vector-effect="none" fill-rule="evenodd" d="M87.749,-9.2257 L88.804,-12.5895 L78.138,-12.24 L86.694,-5.86185 L87.749,-9.2257"/>
</g>

<g fill="none" stroke="#000000" stroke-opacity="1" stroke-width="1" stroke-linecap="square" stroke-linejoin="bevel" transform="matrix(2.00069,0,0,2.00069,-0.00240082,86.6757)"
font-family="Sans Serif" font-size="9" font-weight="400" font-style="normal" 
>
</g>

<g fill="none" stroke="#000000" stroke-opacity="1" stroke-width="1" stroke-linecap="square" stroke-linejoin="bevel" transform="matrix(1,0,0,1,0,0)"
font-family="Sans Serif" font-size="9" font-weight="400" font-style="normal" 
>
</g>
</g>
</svg>
